<svg width="206" height="42" viewBox="0 0 206 42" fill="none" xmlns="http://www.w3.org/2000/svg">
<path opacity="0.5" d="M40.0652 2.25671L30.2601 36.9917C30.2102 37.1494 30.0108 37.1967 29.8945 37.0863L23.3301 30.8583L28.2492 13.4514C28.2991 13.2937 28.1495 13.1518 27.9833 13.1991L9.63617 17.8662L3.10498 11.6697C2.98865 11.5593 3.03851 11.3701 3.20469 11.3228L39.7993 2.00444C39.9655 1.97291 40.115 2.11481 40.0652 2.25671Z" fill="#00B37E"/>
<path opacity="0.5" d="M23.3297 30.858L20.8037 39.8452C20.7538 40.0029 20.5544 40.0502 20.4381 39.9398L0.0634003 20.6251C-0.0529313 20.5147 -0.00307518 20.3255 0.163113 20.2782L9.63583 17.8658L23.3297 30.858Z" fill="#00B37E"/>
<path d="M28.2484 13.4511L23.3292 30.858L9.63533 17.8659L27.9825 13.1988C28.1487 13.1515 28.2982 13.2934 28.2484 13.4511Z" fill="#00B37E"/>
<path d="M64.8232 8.42459V12.11H62.8743V8.42459H64.8232ZM64.5859 28.8254V32.186H62.637V28.8254H64.5859ZM65.9601 24.7277C65.9601 24.253 65.8726 23.8491 65.6977 23.5159C65.5312 23.1828 65.2563 22.8871 64.8732 22.6289C64.4984 22.3708 63.9904 22.1209 63.3491 21.8794C62.2664 21.4629 61.3127 21.0215 60.4882 20.5551C59.672 20.0804 59.0349 19.4932 58.5768 18.7936C58.1187 18.0857 57.8897 17.1904 57.8897 16.1077C57.8897 15.0749 58.1354 14.1796 58.6268 13.4217C59.1182 12.6638 59.7969 12.0808 60.6631 11.6727C61.5376 11.2563 62.5537 11.0481 63.7114 11.0481C64.5942 11.0481 65.3937 11.1813 66.11 11.4479C66.8262 11.706 67.4426 12.0892 67.9589 12.5972C68.4753 13.0969 68.8709 13.7091 69.1457 14.4336C69.4206 15.1582 69.558 15.9869 69.558 16.9197H65.9726C65.9726 16.42 65.9184 15.9786 65.8102 15.5955C65.7019 15.2124 65.5436 14.8917 65.3354 14.6335C65.1355 14.3753 64.894 14.1838 64.6108 14.0589C64.3277 13.9256 64.0154 13.859 63.6739 13.859C63.1658 13.859 62.7494 13.9589 62.4246 14.1588C62.0998 14.3587 61.8624 14.6294 61.7125 14.9708C61.5709 15.304 61.5001 15.6871 61.5001 16.1202C61.5001 16.5449 61.5751 16.9156 61.725 17.232C61.8832 17.5485 62.1539 17.84 62.537 18.1065C62.9202 18.3647 63.4449 18.6312 64.1111 18.9061C65.1938 19.3225 66.1433 19.7722 66.9595 20.2553C67.7757 20.7384 68.4128 21.3297 68.8709 22.0293C69.329 22.7289 69.558 23.62 69.558 24.7028C69.558 25.7771 69.3082 26.6933 68.8084 27.4512C68.3087 28.2007 67.6091 28.7754 66.7096 29.1752C65.8102 29.5666 64.7691 29.7623 63.5864 29.7623C62.8202 29.7623 62.0581 29.6624 61.3002 29.4625C60.5423 29.2543 59.8552 28.9212 59.2389 28.4631C58.6226 28.005 58.1312 27.397 57.7648 26.6391C57.3983 25.8729 57.2151 24.9318 57.2151 23.8158H60.813C60.813 24.4237 60.8921 24.9318 61.0504 25.3399C61.2086 25.7397 61.4168 26.0603 61.675 26.3018C61.9415 26.535 62.2414 26.7016 62.5745 26.8015C62.9077 26.9015 63.245 26.9515 63.5864 26.9515C64.1195 26.9515 64.5567 26.8557 64.8982 26.6641C65.248 26.4726 65.5103 26.2102 65.6852 25.8771C65.8685 25.5356 65.9601 25.1525 65.9601 24.7277ZM81.851 24.7402C81.851 24.4154 81.801 24.1239 81.701 23.8657C81.6094 23.5992 81.4345 23.3577 81.1763 23.1411C80.9182 22.9163 80.5559 22.6956 80.0895 22.479C79.6231 22.2625 79.0193 22.0376 78.278 21.8044C77.4535 21.5379 76.6706 21.2381 75.9294 20.9049C75.1964 20.5718 74.5468 20.1845 73.9805 19.7431C73.4225 19.2934 72.981 18.7728 72.6562 18.1815C72.3397 17.5902 72.1815 16.9031 72.1815 16.1202C72.1815 15.3623 72.3481 14.6752 72.6812 14.0589C73.0144 13.4342 73.4808 12.9012 74.0804 12.4598C74.6801 12.01 75.388 11.6644 76.2042 11.4229C77.0287 11.1813 77.9324 11.0606 78.9151 11.0606C80.256 11.0606 81.4262 11.3021 82.4256 11.7852C83.4251 12.2682 84.1996 12.9303 84.7493 13.7715C85.3073 14.6127 85.5863 15.5747 85.5863 16.6574H81.8635C81.8635 16.1243 81.751 15.6579 81.5261 15.2582C81.3096 14.8501 80.9765 14.5294 80.5267 14.2962C80.0853 14.063 79.5273 13.9464 78.8527 13.9464C78.2031 13.9464 77.6617 14.0464 77.2286 14.2462C76.7955 14.4378 76.4707 14.7002 76.2542 15.0333C76.0376 15.3581 75.9294 15.7246 75.9294 16.1327C75.9294 16.4408 76.0043 16.7198 76.1542 16.9697C76.3125 17.2195 76.5457 17.4527 76.8538 17.6693C77.162 17.8858 77.5409 18.0899 77.9907 18.2814C78.4404 18.473 78.961 18.6604 79.5523 18.8436C80.5434 19.1434 81.4137 19.4807 82.1633 19.8555C82.9212 20.2303 83.5542 20.6509 84.0622 21.1173C84.5702 21.5837 84.9533 22.1126 85.2115 22.7039C85.4697 23.2952 85.5988 23.9657 85.5988 24.7152C85.5988 25.5065 85.4447 26.2144 85.1366 26.839C84.8284 27.4637 84.3828 27.9925 83.7998 28.4256C83.2168 28.8587 82.5214 29.1877 81.7135 29.4126C80.9057 29.6374 80.002 29.7499 79.0026 29.7499C78.1031 29.7499 77.2161 29.6333 76.3416 29.4001C75.4671 29.1585 74.6717 28.7962 73.9555 28.3132C73.2476 27.8301 72.6812 27.2138 72.2565 26.4642C71.8317 25.7147 71.6193 24.8277 71.6193 23.8033H75.3797C75.3797 24.3696 75.4671 24.8485 75.642 25.2399C75.8169 25.6314 76.0626 25.9479 76.3791 26.1894C76.7039 26.4309 77.087 26.6058 77.5284 26.7141C77.9782 26.8224 78.4696 26.8765 79.0026 26.8765C79.6522 26.8765 80.1852 26.7849 80.6017 26.6017C81.0264 26.4184 81.3388 26.1644 81.5386 25.8396C81.7469 25.5148 81.851 25.1483 81.851 24.7402ZM95.2183 26.4517V20.4302C95.2183 19.9971 95.1475 19.6265 95.0059 19.3183C94.8643 19.0019 94.6436 18.7562 94.3438 18.5813C94.0523 18.4064 93.6733 18.3189 93.2069 18.3189C92.8072 18.3189 92.4615 18.3897 92.17 18.5313C91.8785 18.6645 91.6537 18.8603 91.4954 19.1185C91.3372 19.3683 91.2581 19.664 91.2581 20.0054H87.6601C87.6601 19.4308 87.7934 18.8853 88.0599 18.3689C88.3264 17.8525 88.7137 17.3986 89.2217 17.0072C89.7298 16.6074 90.3336 16.2951 91.0332 16.0702C91.7411 15.8453 92.5323 15.7329 93.4068 15.7329C94.4562 15.7329 95.389 15.9078 96.2052 16.2576C97.0214 16.6074 97.6627 17.1321 98.1291 17.8317C98.6039 18.5313 98.8412 19.4058 98.8412 20.4552V26.2394C98.8412 26.9806 98.887 27.5886 98.9786 28.0633C99.0703 28.5297 99.2035 28.9378 99.3784 29.2876V29.5H95.743C95.5681 29.1335 95.4348 28.6755 95.3432 28.1258C95.2599 27.5678 95.2183 27.0098 95.2183 26.4517ZM95.693 21.2672L95.718 23.3036H93.7067C93.2319 23.3036 92.8197 23.3577 92.4699 23.466C92.1201 23.5742 91.8327 23.7283 91.6079 23.9282C91.383 24.1198 91.2164 24.3446 91.1082 24.6028C91.0082 24.861 90.9582 25.1442 90.9582 25.4523C90.9582 25.7605 91.029 26.0395 91.1706 26.2893C91.3122 26.5309 91.5163 26.7224 91.7828 26.864C92.0493 26.9973 92.3616 27.0639 92.7197 27.0639C93.2611 27.0639 93.7316 26.9556 94.1314 26.7391C94.5312 26.5225 94.8393 26.256 95.0559 25.9395C95.2808 25.6231 95.3974 25.3232 95.4057 25.0401L96.3551 26.5642C96.2219 26.9057 96.0387 27.2596 95.8055 27.6261C95.5806 27.9925 95.2933 28.3382 94.9435 28.663C94.5937 28.9795 94.1731 29.2418 93.6817 29.45C93.1903 29.6499 92.6073 29.7499 91.9327 29.7499C91.0748 29.7499 90.2961 29.5791 89.5965 29.2377C88.9052 28.8879 88.3556 28.409 87.9475 27.801C87.5477 27.1847 87.3478 26.4851 87.3478 25.7022C87.3478 24.9943 87.4811 24.3654 87.7476 23.8158C88.0141 23.2661 88.4055 22.8038 88.9219 22.4291C89.4466 22.0459 90.1004 21.7586 90.8833 21.5671C91.6662 21.3672 92.574 21.2672 93.6067 21.2672H95.693ZM106.012 26.8765L109.01 15.9828H112.771L108.211 29.5H105.937L106.012 26.8765ZM103.951 15.9828L106.962 26.889L107.024 29.5H104.738L100.178 15.9828H103.951ZM120.429 29.7499C119.379 29.7499 118.438 29.5833 117.605 29.2501C116.773 28.9087 116.065 28.4381 115.482 27.8385C114.907 27.2388 114.466 26.5434 114.157 25.7521C113.849 24.9526 113.695 24.1031 113.695 23.2036V22.7039C113.695 21.6795 113.841 20.7425 114.132 19.893C114.424 19.0435 114.84 18.3064 115.382 17.6818C115.931 17.0571 116.598 16.5782 117.381 16.2451C118.163 15.9036 119.046 15.7329 120.029 15.7329C120.987 15.7329 121.836 15.8911 122.578 16.2076C123.319 16.5241 123.939 16.9739 124.439 17.5569C124.947 18.1398 125.33 18.8394 125.588 19.6556C125.847 20.4635 125.976 21.363 125.976 22.3541V23.8532H115.232V21.4546H122.44V21.1798C122.44 20.6801 122.349 20.2345 122.165 19.843C121.99 19.4433 121.724 19.1268 121.366 18.8936C121.008 18.6604 120.55 18.5438 119.992 18.5438C119.517 18.5438 119.109 18.6479 118.767 18.8561C118.426 19.0643 118.147 19.3558 117.93 19.7306C117.722 20.1054 117.564 20.5468 117.456 21.0548C117.356 21.5546 117.306 22.1042 117.306 22.7039V23.2036C117.306 23.745 117.381 24.2447 117.53 24.7028C117.689 25.1608 117.909 25.5564 118.193 25.8896C118.484 26.2227 118.834 26.4809 119.242 26.6641C119.658 26.8474 120.129 26.939 120.654 26.939C121.303 26.939 121.907 26.814 122.465 26.5642C123.032 26.306 123.519 25.9187 123.927 25.4024L125.676 27.3013C125.393 27.7094 125.005 28.1008 124.514 28.4756C124.031 28.8504 123.448 29.1585 122.765 29.4001C122.082 29.6333 121.303 29.7499 120.429 29.7499ZM129.961 11.3104H133.134L137.806 24.6653L142.479 11.3104H145.652L139.081 29.5H136.532L129.961 11.3104ZM128.249 11.3104H131.41L131.985 24.328V29.5H128.249V11.3104ZM144.203 11.3104H147.376V29.5H143.628V24.328L144.203 11.3104ZM149.862 22.8788V22.6164C149.862 21.6253 150.004 20.7134 150.287 19.8805C150.57 19.0393 150.982 18.3106 151.523 17.6943C152.065 17.078 152.731 16.5991 153.522 16.2576C154.314 15.9078 155.221 15.7329 156.246 15.7329C157.27 15.7329 158.182 15.9078 158.982 16.2576C159.781 16.5991 160.452 17.078 160.993 17.6943C161.543 18.3106 161.959 19.0393 162.242 19.8805C162.526 20.7134 162.667 21.6253 162.667 22.6164V22.8788C162.667 23.8616 162.526 24.7735 162.242 25.6147C161.959 26.4476 161.543 27.1763 160.993 27.801C160.452 28.4173 159.785 28.8962 158.994 29.2377C158.203 29.5791 157.295 29.7499 156.271 29.7499C155.246 29.7499 154.334 29.5791 153.535 29.2377C152.744 28.8962 152.073 28.4173 151.523 27.801C150.982 27.1763 150.57 26.4476 150.287 25.6147C150.004 24.7735 149.862 23.8616 149.862 22.8788ZM153.46 22.6164V22.8788C153.46 23.4451 153.51 23.974 153.61 24.4654C153.71 24.9568 153.868 25.3899 154.085 25.7646C154.309 26.1311 154.601 26.4184 154.959 26.6266C155.317 26.8349 155.754 26.939 156.271 26.939C156.77 26.939 157.199 26.8349 157.558 26.6266C157.916 26.4184 158.203 26.1311 158.42 25.7646C158.636 25.3899 158.794 24.9568 158.894 24.4654C159.003 23.974 159.057 23.4451 159.057 22.8788V22.6164C159.057 22.0668 159.003 21.5504 158.894 21.0673C158.794 20.576 158.632 20.1429 158.407 19.7681C158.191 19.385 157.903 19.0851 157.545 18.8686C157.187 18.6521 156.754 18.5438 156.246 18.5438C155.738 18.5438 155.305 18.6521 154.947 18.8686C154.597 19.0851 154.309 19.385 154.085 19.7681C153.868 20.1429 153.71 20.576 153.61 21.0673C153.51 21.5504 153.46 22.0668 153.46 22.6164ZM168.401 18.8686V29.5H164.803V15.9828H168.176L168.401 18.8686ZM167.877 22.2666H166.902C166.902 21.2672 167.031 20.3677 167.289 19.5682C167.548 18.7603 167.91 18.0732 168.376 17.5069C168.843 16.9322 169.397 16.495 170.038 16.1951C170.688 15.887 171.412 15.7329 172.212 15.7329C172.845 15.7329 173.423 15.8245 173.948 16.0077C174.473 16.191 174.923 16.4825 175.297 16.8822C175.68 17.282 175.972 17.8109 176.172 18.4688C176.38 19.1268 176.484 19.9305 176.484 20.8799V29.5H172.861V20.8675C172.861 20.2678 172.778 19.8014 172.611 19.4683C172.445 19.1351 172.199 18.9019 171.874 18.7687C171.558 18.6271 171.166 18.5563 170.7 18.5563C170.217 18.5563 169.796 18.6521 169.438 18.8436C169.088 19.0352 168.797 19.3017 168.564 19.6432C168.339 19.9763 168.168 20.3677 168.052 20.8175C167.935 21.2672 167.877 21.7503 167.877 22.2666ZM185.442 29.7499C184.392 29.7499 183.451 29.5833 182.618 29.2501C181.785 28.9087 181.077 28.4381 180.494 27.8385C179.92 27.2388 179.478 26.5434 179.17 25.7521C178.862 24.9526 178.708 24.1031 178.708 23.2036V22.7039C178.708 21.6795 178.854 20.7425 179.145 19.893C179.437 19.0435 179.853 18.3064 180.394 17.6818C180.944 17.0571 181.61 16.5782 182.393 16.2451C183.176 15.9036 184.059 15.7329 185.042 15.7329C186 15.7329 186.849 15.8911 187.59 16.2076C188.332 16.5241 188.952 16.9739 189.452 17.5569C189.96 18.1398 190.343 18.8394 190.601 19.6556C190.859 20.4635 190.988 21.363 190.988 22.3541V23.8532H180.245V21.4546H187.453V21.1798C187.453 20.6801 187.361 20.2345 187.178 19.843C187.003 19.4433 186.737 19.1268 186.379 18.8936C186.02 18.6604 185.562 18.5438 185.004 18.5438C184.53 18.5438 184.121 18.6479 183.78 18.8561C183.439 19.0643 183.16 19.3558 182.943 19.7306C182.735 20.1054 182.577 20.5468 182.468 21.0548C182.368 21.5546 182.318 22.1042 182.318 22.7039V23.2036C182.318 23.745 182.393 24.2447 182.543 24.7028C182.701 25.1608 182.922 25.5564 183.205 25.8896C183.497 26.2227 183.847 26.4809 184.255 26.6641C184.671 26.8474 185.142 26.939 185.666 26.939C186.316 26.939 186.92 26.814 187.478 26.5642C188.044 26.306 188.531 25.9187 188.94 25.4024L190.689 27.3013C190.405 27.7094 190.018 28.1008 189.527 28.4756C189.044 28.8504 188.461 29.1585 187.778 29.4001C187.095 29.6333 186.316 29.7499 185.442 29.7499ZM196.872 27.9759L200.458 15.9828H204.318L198.884 31.5363C198.767 31.8778 198.609 32.2443 198.409 32.6357C198.218 33.0271 197.955 33.3978 197.622 33.7476C197.297 34.1057 196.885 34.3972 196.385 34.6221C195.894 34.8469 195.29 34.9594 194.574 34.9594C194.232 34.9594 193.953 34.9385 193.737 34.8969C193.52 34.8553 193.262 34.797 192.962 34.722V32.086C193.054 32.086 193.15 32.086 193.25 32.086C193.35 32.0943 193.445 32.0985 193.537 32.0985C194.012 32.0985 194.399 32.0444 194.699 31.9361C194.999 31.8278 195.24 31.6613 195.423 31.4364C195.607 31.2198 195.752 30.9367 195.861 30.5869L196.872 27.9759ZM195.373 15.9828L198.309 25.7771L198.821 29.5874L196.373 29.8498L191.513 15.9828H195.373Z" fill="#E1E1E6"/>
</svg>
